<svg width="450" height="500" viewBox="0 0 450 500" fill="none" xmlns="http://www.w3.org/2000/svg">
<g clip-path="url(#clip0_324_104)">
<path d="M126.68 50.6724L120.969 160.378C120.969 160.378 117.876 173.99 110.97 184.405C104.334 194.391 68.12 254.86 72.4003 322.13C76.6899 389.389 117.399 445.447 174.538 457.455L173.819 475.875C173.819 475.875 10.2708 487.883 1.7009 279.693C8.12132 131.543 126.68 50.6724 126.68 50.6724Z" fill="#5CAD2F"/>
<path d="M126.68 50.6721L120.969 160.378C120.969 160.378 117.876 173.989 110.97 184.405C104.334 194.39 68.12 254.86 72.4003 322.129C76.6899 389.388 117.399 445.446 174.538 457.454L173.819 475.875C173.819 475.875 10.2708 487.883 1.7009 279.693C8.12132 131.542 126.68 50.6721 126.68 50.6721Z" stroke="#5CAD2F" stroke-width="1.88857"/>
<path d="M148.586 256.201L185.725 36.2647C185.725 36.2647 181.912 13.8415 249.527 5.30181C317.133 -3.24836 308.087 5.02938 301.657 21.8468C295.227 38.6642 244.172 175.194 244.172 175.194C244.172 175.194 235.238 192.012 255.237 183.2C275.237 174.388 311.302 158.775 311.302 158.775C311.302 158.775 326.301 150.372 316.657 169.987C307.021 189.602 258.808 297.307 258.808 297.307C258.808 297.307 253.452 312.521 267.733 305.312C282.022 298.113 310.582 286.493 310.582 286.493C310.582 286.493 327.376 279.693 315.946 298.91C304.517 318.127 203.818 495.092 203.818 495.092C203.818 495.092 201.491 499.294 198.342 497.764C194.276 495.784 197.117 491.194 198.575 487.087C199.818 483.576 246.312 361.768 246.312 361.768C246.312 361.768 253.808 341.755 233.098 351.761C212.388 361.768 189.529 369.773 189.529 369.773C189.529 369.773 170.959 380.985 181.678 352.16C192.388 323.334 215.603 260.476 215.603 260.476C215.603 260.476 221.668 245.66 207.743 250.857C193.818 256.075 162.034 270.084 162.034 270.084C162.034 270.084 144.417 279.955 148.586 256.201Z" fill="#5CAD2F"/>
<mask id="mask0_324_104" style="mask-type:luminance" maskUnits="userSpaceOnUse" x="126" y="0" width="214" height="500">
<path d="M126.801 0H339.731V499.996H126.801V0Z" fill="white"/>
</mask>
<g mask="url(#mask0_324_104)">
<path d="M148.586 256.201L185.725 36.2647C185.725 36.2647 181.912 13.8415 249.527 5.30179C317.133 -3.24837 308.087 5.02936 301.657 21.8468C295.227 38.6642 244.172 175.194 244.172 175.194C244.172 175.194 235.238 192.012 255.237 183.2C275.237 174.388 311.302 158.775 311.302 158.775C311.302 158.775 326.301 150.372 316.657 169.987C307.021 189.602 258.807 297.307 258.807 297.307C258.807 297.307 253.452 312.521 267.733 305.312C282.022 298.113 310.582 286.493 310.582 286.493C310.582 286.493 327.376 279.693 315.946 298.91C304.517 318.127 203.818 495.092 203.818 495.092C203.818 495.092 201.491 499.294 198.342 497.764C194.276 495.783 197.117 491.194 198.575 487.087C199.818 483.576 246.312 361.768 246.312 361.768C246.312 361.768 253.808 341.755 233.098 351.761C212.388 361.768 189.529 369.773 189.529 369.773C189.529 369.773 170.959 380.985 181.678 352.16C192.388 323.334 215.603 260.476 215.603 260.476C215.603 260.476 221.668 245.66 207.743 250.857C193.818 256.075 162.034 270.084 162.034 270.084C162.034 270.084 144.417 279.955 148.586 256.201Z" stroke="#5CAD2F" stroke-width="1.88857"/>
</g>
<path d="M317.731 105.923L349.871 31.4552C349.871 31.4552 353.796 16.2409 366.301 25.4512C378.796 34.6615 453.074 72.299 448.074 196.811C443.075 321.322 353.319 426.492 258.097 461.729C250.957 463.857 254.406 458.659 257.256 454.122C260.125 449.585 262.733 444.451 262.733 444.451C262.733 444.451 261.845 443.246 274.162 435.042C286.48 426.827 365.936 378.187 377.366 270.084C381.655 181.995 359.039 150.497 322.367 117.942C313.563 110.733 317.731 105.923 317.731 105.923Z" fill="#5CAD2F"/>
<mask id="mask1_324_104" style="mask-type:luminance" maskUnits="userSpaceOnUse" x="234" y="0" width="216" height="486">
<path d="M234.462 0H450V485.515H234.462V0Z" fill="white"/>
</mask>
<g mask="url(#mask1_324_104)">
<path d="M317.731 105.923L349.871 31.4552C349.871 31.4552 353.796 16.241 366.301 25.4512C378.796 34.6615 453.074 72.299 448.074 196.811C443.075 321.322 353.319 426.492 258.097 461.729C250.957 463.857 254.406 458.659 257.256 454.122C260.125 449.585 262.733 444.451 262.733 444.451C262.733 444.451 261.845 443.246 274.162 435.042C286.48 426.827 365.936 378.187 377.366 270.084C381.655 181.995 359.039 150.497 322.367 117.942C313.563 110.733 317.731 105.923 317.731 105.923Z" stroke="#5CAD2F" stroke-width="1.88857"/>
</g>
</g>
<defs>
<clipPath id="clip0_324_104">
<rect width="450" height="500" fill="white"/>
</clipPath>
</defs>
</svg>
