<svg width="415" height="519" viewBox="0 0 415 519" fill="none" xmlns="http://www.w3.org/2000/svg">
<path d="M31.0473 511.305L69.1956 395.863H114.579L154.043 511.305L132.338 394.551H48.806L31.0473 511.305Z" stroke="#5CAD2F" stroke-width="5.53705"/>
<path d="M48.806 394.552L116.552 304.035L132.338 394.552L66.5646 304.035L48.806 394.552ZM48.806 394.552L67.2224 305.347H115.237L107.344 111.195H76.4306L66.5646 306.659L111.948 220.077L69.8534 221.389L115.237 302.723L109.975 174.163M109.975 174.163L72.4842 176.787L10 220.077H171.144L109.975 174.163ZM109.975 174.163L76.4306 113.818H10L81.0347 69.2157L102.082 67.9039L170.486 109.883L106.686 112.506L73.7997 178.099L76.4306 112.506L91.5584 1L108.002 112.506" stroke="#5CAD2F" stroke-width="5.53705"/>
<path d="M370.825 247.972L364.773 248.043L365.358 285.454L345.648 259.146L345.999 279.986L409.209 363.609C412.411 363.7 415.678 362.3 413.739 349.972L371.548 293.698L370.827 247.983L370.825 247.972ZM343.793 258.911L275.97 350.238C274.089 361.529 277.796 364.044 280.5 363.876L343.961 280.214L343.793 258.911ZM298.303 346.302L290.68 357.938V507.549H298.053L298.303 346.302ZM391.387 346.302L391.638 507.553H399.01V357.943L391.387 346.302ZM286.485 510.352C285.454 512.886 284.964 515.42 286.485 517.954H403.208C404.068 515.991 404.866 513.988 403.208 510.352H286.485Z" fill="#5CAD2F" stroke="#5CAD2F" stroke-width="0.203011"/>
<path d="M322.363 391.013C323.036 415.479 333.191 434.892 345.627 434.892C358.062 434.892 368.249 415.479 368.923 391.013H322.363Z" fill="#5CAD2F" stroke="#5CAD2F" stroke-width="0.771023"/>
<path d="M332.816 357.594C334.266 357.594 335.434 359.923 335.434 362.816V392.061C335.434 394.955 334.266 397.283 332.816 397.283C331.365 397.283 330.197 394.955 330.197 392.061V362.816C330.197 359.923 331.365 357.594 332.816 357.594Z" fill="#5CAD2F" stroke="#5CAD2F" stroke-width="0.771023"/>
<path d="M357.698 357.594C359.148 357.594 360.316 359.923 360.316 362.816V392.061C360.316 394.955 359.148 397.283 357.698 397.283C356.247 397.283 355.079 394.955 355.079 392.061V362.816C355.079 359.923 356.247 357.594 357.698 357.594Z" fill="#5CAD2F" stroke="#5CAD2F" stroke-width="0.771023"/>
<path d="M338.57 420.769H353.887C355.338 420.769 356.506 423.098 356.506 425.991V456.541C356.506 459.434 355.338 461.763 353.887 461.763H338.57C337.12 461.763 335.952 459.434 335.952 456.541V425.991C335.952 423.098 337.12 420.769 338.57 420.769Z" fill="#5CAD2F" stroke="#5CAD2F" stroke-width="0.771023"/>
<path fill-rule="evenodd" clip-rule="evenodd" d="M175.481 491.361L202.703 491.895L202.35 453.378L175.481 452.673L175.481 491.361Z" fill="#5CAD2F"/>
<path fill-rule="evenodd" clip-rule="evenodd" d="M213.059 317.547V511.306H164.887V316.479H175.324V288.189H203.157V317.013L213.059 317.547Z" stroke="#5CAD2F" stroke-width="3.60613"/>
<path fill-rule="evenodd" clip-rule="evenodd" d="M175.242 434.597L202.465 435.131L202.112 396.614L175.243 395.909L175.242 434.597Z" fill="#5CAD2F"/>
<path fill-rule="evenodd" clip-rule="evenodd" d="M175.242 377.837L202.465 378.371L202.112 339.854L175.243 339.148L175.242 377.837Z" fill="#5CAD2F"/>
<path fill-rule="evenodd" clip-rule="evenodd" d="M230.498 491.361L257.721 491.895L257.368 453.378L230.499 452.673L230.498 491.361Z" fill="#5CAD2F"/>
<path fill-rule="evenodd" clip-rule="evenodd" d="M268.077 317.547V511.306H219.905V316.479H230.342V288.189H258.175V317.013L268.077 317.547Z" stroke="#5CAD2F" stroke-width="3.60613"/>
<path fill-rule="evenodd" clip-rule="evenodd" d="M230.26 434.597L257.483 435.131L257.13 396.614L230.26 395.909L230.26 434.597Z" fill="#5CAD2F"/>
<path fill-rule="evenodd" clip-rule="evenodd" d="M230.26 377.837L257.483 378.371L257.13 339.854L230.26 339.148L230.26 377.837Z" fill="#5CAD2F"/>
</svg>
