<svg width="315" height="438" viewBox="0 0 315 438" fill="none" xmlns="http://www.w3.org/2000/svg">
<path d="M210.106 162.606C218.671 162.606 225.615 154.617 225.615 144.763C225.615 134.909 218.671 126.921 210.106 126.921C201.541 126.921 194.598 134.909 194.598 144.763C194.598 154.617 201.541 162.606 210.106 162.606Z" fill="#5CAD2F"/>
<path d="M236.828 126.725C279.421 38.1842 286.727 2.75132 282.698 0.17842C278.669 -2.39447 255.637 22.3274 210.446 109.022C215.796 109.096 221.038 110.765 225.662 113.867C230.285 116.97 234.132 121.399 236.828 126.725Z" fill="#5CAD2F"/>
<path d="M179.114 144.763C179.12 138.59 180.526 132.527 183.192 127.172C95.5534 128.962 65.4347 139.337 65.4347 144.791C65.4347 150.244 95.5291 160.564 183.192 162.353C180.526 156.999 179.12 150.936 179.114 144.763Z" fill="#5CAD2F"/>
<path d="M194.598 184.531V430.632H225.639V241.441C216.732 226.284 206.466 207.631 194.598 184.531Z" fill="#5CAD2F"/>
<path d="M231.218 169.413C227.548 173.91 222.923 177.223 217.8 179.026C282.772 246.82 310.897 263.002 314.136 259.025C317.374 255.048 301.556 223.794 238.691 153.371C237.455 159.377 234.879 164.907 231.218 169.413Z" fill="#5CAD2F"/>
<path d="M87.078 278.178C92.1829 278.178 96.3214 273.417 96.3214 267.544C96.3214 261.671 92.1829 256.91 87.078 256.91C81.9731 256.91 77.8346 261.671 77.8346 267.544C77.8346 273.417 81.9731 278.178 87.078 278.178Z" fill="#5CAD2F"/>
<path d="M103.005 256.793C128.391 204.021 132.745 182.903 130.344 181.369C127.943 179.836 114.215 194.57 87.2807 246.242C90.4693 246.286 93.5937 247.281 96.3494 249.13C99.105 250.979 101.398 253.619 103.005 256.793Z" fill="#5CAD2F"/>
<path d="M68.6058 267.544C68.6095 263.864 69.4472 260.25 71.0359 257.059C18.8018 258.126 0.850342 264.31 0.850342 267.56C0.850342 270.81 18.7873 276.961 71.0359 278.028C69.4472 274.837 68.6095 271.223 68.6058 267.544Z" fill="#5CAD2F"/>
<path d="M77.8346 291.247V437.928H96.3357V325.167C91.0269 316.132 84.9082 305.015 77.8346 291.247Z" fill="#5CAD2F"/>
<path d="M99.6615 282.235C97.4741 284.916 94.7171 286.891 91.6635 287.965C130.389 328.372 147.152 338.016 149.082 335.646C151.012 333.276 141.584 314.648 104.115 272.674C103.379 276.254 101.843 279.55 99.6615 282.235Z" fill="#5CAD2F"/>
</svg>
