<svg width="559" height="621" viewBox="0 0 559 621" fill="none" xmlns="http://www.w3.org/2000/svg">
<path d="M30.3442 612.354L69.0308 473.91H115.055L155.075 612.354L133.064 472.337H48.3535L30.3442 612.354Z" stroke="#5CAD2F" stroke-width="5.53705"/>
<path d="M48.3536 472.339L117.056 363.786L133.064 472.339L66.3628 363.786L48.3536 472.339ZM48.3536 472.339L67.0298 365.359H115.722L107.717 132.522H76.368L66.3628 366.932L112.387 263.1L69.6979 264.673L115.722 362.213L110.385 208.037M110.385 208.037L72.3659 211.183L9 263.1H172.417L110.385 208.037ZM110.385 208.037L76.368 135.668H9L81.0371 82.1788L102.381 80.6056L171.75 130.949L107.05 134.095L73.6999 212.756L76.368 134.095L91.7092 0.371094L108.384 134.095" stroke="#5CAD2F" stroke-width="5.53705"/>
<path d="M374.916 296.551L368.779 296.636L369.373 341.502L349.384 309.952L349.74 334.944L413.842 435.229C417.089 435.338 420.402 433.659 418.436 418.874L375.649 351.388L374.918 296.564L374.916 296.551ZM347.503 309.669L278.722 419.194C276.815 432.734 280.575 435.751 283.317 435.549L347.673 335.218L347.503 309.669ZM301.371 414.473L293.64 428.428V607.848H301.117L301.371 414.473ZM395.769 414.473L396.023 607.853H403.499V428.434L395.769 414.473ZM289.387 611.21C288.341 614.249 287.844 617.288 289.387 620.327H407.756C408.628 617.973 409.438 615.571 407.756 611.21H289.387Z" fill="#5CAD2F" stroke="#5CAD2F" stroke-width="0.203011"/>
<path d="M325.77 468.094C326.453 497.434 336.752 520.717 349.363 520.717C361.973 520.717 372.304 497.435 372.988 468.094H325.77Z" fill="#5CAD2F" stroke="#5CAD2F" stroke-width="0.771023"/>
<path d="M336.371 428.016C337.842 428.016 339.026 430.809 339.026 434.279V469.351C339.026 472.821 337.842 475.613 336.371 475.613C334.9 475.613 333.716 472.821 333.716 469.351V434.279C333.716 430.809 334.9 428.016 336.371 428.016Z" fill="#5CAD2F" stroke="#5CAD2F" stroke-width="0.771023"/>
<path d="M361.604 428.016C363.075 428.016 364.259 430.809 364.259 434.279V469.351C364.259 472.821 363.075 475.613 361.604 475.613C360.133 475.613 358.948 472.821 358.948 469.351V434.279C358.948 430.809 360.133 428.016 361.604 428.016Z" fill="#5CAD2F" stroke="#5CAD2F" stroke-width="0.771023"/>
<path d="M342.206 503.778H357.74C359.211 503.778 360.395 506.571 360.395 510.041V546.678C360.395 550.148 359.211 552.941 357.74 552.941H342.206C340.735 552.941 339.551 550.148 339.551 546.678V510.041C339.551 506.571 340.735 503.778 342.206 503.778Z" fill="#5CAD2F" stroke="#5CAD2F" stroke-width="0.771023"/>
<path d="M514.63 296.227L508.493 296.312L509.086 341.178L489.098 309.627L489.454 334.62L553.555 434.905C556.803 435.014 560.115 433.335 558.15 418.55L515.363 351.064L514.632 296.24L514.63 296.227ZM487.216 309.345L418.436 418.87C416.529 432.41 420.288 435.427 423.03 435.224L487.387 334.894L487.216 309.345ZM441.085 414.149L433.354 428.104V607.524H440.831L441.085 414.149ZM535.482 414.149L535.736 607.529H543.213V428.109L535.482 414.149ZM429.1 610.886C428.054 613.925 427.557 616.964 429.1 620.003H547.47C548.341 617.649 549.151 615.247 547.47 610.886H429.1Z" fill="#5CAD2F" stroke="#5CAD2F" stroke-width="0.203011"/>
<path d="M465.484 467.766C466.167 497.106 476.465 520.388 489.076 520.388C501.686 520.388 512.018 497.107 512.701 467.766H465.484Z" fill="#5CAD2F" stroke="#5CAD2F" stroke-width="0.771023"/>
<path d="M476.084 427.688C477.556 427.688 478.74 430.482 478.74 433.951V469.023C478.74 472.493 477.556 475.286 476.084 475.286C474.613 475.286 473.429 472.493 473.429 469.023V433.951C473.429 430.482 474.613 427.688 476.084 427.688Z" fill="#5CAD2F" stroke="#5CAD2F" stroke-width="0.771023"/>
<path d="M501.317 427.688C502.788 427.688 503.973 430.482 503.973 433.951V469.023C503.973 472.493 502.788 475.286 501.317 475.286C499.846 475.286 498.662 472.493 498.662 469.023V433.951C498.662 430.482 499.846 427.688 501.317 427.688Z" fill="#5CAD2F" stroke="#5CAD2F" stroke-width="0.771023"/>
<path d="M481.92 503.451H497.453C498.924 503.451 500.109 506.244 500.109 509.714V546.351C500.109 549.821 498.924 552.614 497.453 552.614H481.92C480.449 552.614 479.265 549.821 479.265 546.351V509.714C479.265 506.244 480.449 503.451 481.92 503.451Z" fill="#5CAD2F" stroke="#5CAD2F" stroke-width="0.771023"/>
<path fill-rule="evenodd" clip-rule="evenodd" d="M176.816 588.436L204.423 589.076L204.065 542.885L176.816 542.039L176.816 588.436Z" fill="#5CAD2F"/>
<path fill-rule="evenodd" clip-rule="evenodd" d="M214.924 379.988V612.354H166.072V378.708H176.657V344.781H204.882V379.348L214.924 379.988Z" stroke="#5CAD2F" stroke-width="3.60613"/>
<path fill-rule="evenodd" clip-rule="evenodd" d="M176.574 520.362L204.181 521.002L203.823 474.81L176.574 473.965L176.574 520.362Z" fill="#5CAD2F"/>
<path fill-rule="evenodd" clip-rule="evenodd" d="M176.574 452.291L204.181 452.932L203.823 406.74L176.574 405.895L176.574 452.291Z" fill="#5CAD2F"/>
<path fill-rule="evenodd" clip-rule="evenodd" d="M232.61 588.436L260.216 589.076L259.858 542.885L232.61 542.039L232.61 588.436Z" fill="#5CAD2F"/>
<path fill-rule="evenodd" clip-rule="evenodd" d="M270.718 379.988V612.354H221.866V378.708H232.451V344.781H260.676V379.348L270.718 379.988Z" stroke="#5CAD2F" stroke-width="3.60613"/>
<path fill-rule="evenodd" clip-rule="evenodd" d="M232.368 520.362L259.975 521.002L259.617 474.81L232.368 473.965L232.368 520.362Z" fill="#5CAD2F"/>
<path fill-rule="evenodd" clip-rule="evenodd" d="M232.368 452.291L259.975 452.932L259.617 406.74L232.368 405.895L232.368 452.291Z" fill="#5CAD2F"/>
<path d="M392.36 333.467L369.18 294.861L362.982 323.169L386.163 361.775L392.36 333.467Z" fill="white" stroke="white" stroke-width="3.15628"/>
<path d="M532.281 328.532L506.477 284.689L499.578 316.838L525.382 360.681L532.281 328.532Z" fill="white" stroke="white" stroke-width="3.55346"/>
</svg>
