<svg width="486" height="520" viewBox="0 0 486 520" fill="none" xmlns="http://www.w3.org/2000/svg">
<path d="M27.4812 512.378L60.9786 396.693H100.829L135.481 512.378L116.422 395.379H43.0749L27.4812 512.378Z" stroke="#5CAD2F" stroke-width="5.53705"/>
<path d="M43.0749 395.381L102.562 304.673L116.422 395.381L58.6684 304.673L43.0749 395.381ZM43.0749 395.381L59.246 305.988H101.406L94.476 111.427H67.3316L58.6684 307.302L98.5188 220.539L61.5562 221.853L101.406 303.359L96.7861 174.528M96.7861 174.528L63.8663 177.157L9 220.539H150.497L96.7861 174.528ZM96.7861 174.528L67.3316 114.056H9L71.3744 69.3594L89.8556 68.0447L149.92 110.112L93.8984 112.741L65.0214 178.471L67.3316 112.741L80.615 1L95.0535 112.741" stroke="#5CAD2F" stroke-width="5.53705"/>
<path d="M325.834 248.491L320.52 248.562L321.034 286.053L303.727 259.689L304.035 280.573L359.538 364.372C362.35 364.463 365.218 363.06 363.516 350.706L326.469 294.314L325.836 248.502L325.834 248.491ZM302.098 259.453L242.543 350.973C240.892 362.287 244.147 364.808 246.521 364.639L302.245 280.802L302.098 259.453ZM262.154 347.028L255.46 358.689V508.615H261.934L262.154 347.028ZM343.889 347.028L344.109 508.619H350.583V358.694L343.889 347.028ZM251.777 511.424C250.871 513.963 250.441 516.502 251.777 519.042H354.269C355.024 517.075 355.725 515.067 354.269 511.424H251.777Z" fill="#5CAD2F" stroke="#5CAD2F" stroke-width="0.203011"/>
<path d="M283.28 391.834C283.871 416.351 292.789 435.806 303.708 435.806C314.627 435.806 323.573 416.352 324.164 391.834H283.28Z" fill="#5CAD2F" stroke="#5CAD2F" stroke-width="0.771023"/>
<path d="M292.459 358.345C293.733 358.345 294.758 360.679 294.758 363.578V392.885C294.758 395.784 293.733 398.118 292.459 398.118C291.185 398.118 290.16 395.784 290.16 392.885V363.578C290.16 360.679 291.185 358.345 292.459 358.345Z" fill="#5CAD2F" stroke="#5CAD2F" stroke-width="0.771023"/>
<path d="M314.307 358.345C315.581 358.345 316.606 360.679 316.606 363.578V392.885C316.606 395.784 315.581 398.118 314.307 398.118C313.034 398.118 312.008 395.784 312.008 392.885V363.578C312.008 360.679 313.034 358.345 314.307 358.345Z" fill="#5CAD2F" stroke="#5CAD2F" stroke-width="0.771023"/>
<path d="M297.512 421.652H310.962C312.235 421.652 313.261 423.986 313.261 426.886V457.5C313.261 460.399 312.235 462.733 310.962 462.733H297.512C296.238 462.733 295.213 460.399 295.213 457.5V426.886C295.213 423.986 296.238 421.652 297.512 421.652Z" fill="#5CAD2F" stroke="#5CAD2F" stroke-width="0.771023"/>
<path d="M446.807 248.22L441.493 248.291L442.007 285.781L424.7 259.418L425.008 280.301L480.511 364.1C483.323 364.192 486.191 362.789 484.49 350.435L447.442 294.043L446.809 248.231L446.807 248.22ZM423.071 259.182L363.516 350.702C361.865 362.016 365.12 364.537 367.494 364.368L423.218 280.53L423.071 259.182ZM383.127 346.757L376.433 358.418V508.343H382.907L383.127 346.757ZM464.862 346.757L465.083 508.348H471.556V358.422L464.862 346.757ZM372.75 511.152C371.844 513.692 371.414 516.231 372.75 518.77H475.242C475.997 516.804 476.698 514.796 475.242 511.152H372.75Z" fill="#5CAD2F" stroke="#5CAD2F" stroke-width="0.203011"/>
<path d="M404.253 391.56C404.844 416.077 413.762 435.532 424.681 435.532C435.6 435.532 444.546 416.077 445.137 391.56H404.253Z" fill="#5CAD2F" stroke="#5CAD2F" stroke-width="0.771023"/>
<path d="M413.432 358.07C414.706 358.07 415.731 360.404 415.731 363.304V392.61C415.731 395.51 414.706 397.844 413.432 397.844C412.158 397.844 411.133 395.51 411.133 392.61V363.304C411.133 360.404 412.158 358.07 413.432 358.07Z" fill="#5CAD2F" stroke="#5CAD2F" stroke-width="0.771023"/>
<path d="M435.28 358.07C436.554 358.07 437.58 360.404 437.58 363.304V392.61C437.58 395.51 436.554 397.844 435.28 397.844C434.007 397.844 432.981 395.51 432.981 392.61V363.304C432.981 360.404 434.007 358.07 435.28 358.07Z" fill="#5CAD2F" stroke="#5CAD2F" stroke-width="0.771023"/>
<path d="M418.485 421.379H431.935C433.208 421.379 434.234 423.713 434.234 426.612V457.226C434.234 460.126 433.208 462.46 431.935 462.46H418.485C417.211 462.46 416.186 460.126 416.186 457.226V426.612C416.186 423.713 417.211 421.379 418.485 421.379Z" fill="#5CAD2F" stroke="#5CAD2F" stroke-width="0.771023"/>
<path fill-rule="evenodd" clip-rule="evenodd" d="M154.306 492.394L178.21 492.929L177.9 454.331L154.306 453.624L154.306 492.394Z" fill="#5CAD2F"/>
<path fill-rule="evenodd" clip-rule="evenodd" d="M187.303 318.213V512.38H145.004V317.143H154.168V288.794H178.608V317.678L187.303 318.213Z" stroke="#5CAD2F" stroke-width="3.60613"/>
<path fill-rule="evenodd" clip-rule="evenodd" d="M154.097 435.51L178 436.045L177.69 397.447L154.097 396.74L154.097 435.51Z" fill="#5CAD2F"/>
<path fill-rule="evenodd" clip-rule="evenodd" d="M154.097 378.63L178 379.165L177.69 340.567L154.097 339.86L154.097 378.63Z" fill="#5CAD2F"/>
<path fill-rule="evenodd" clip-rule="evenodd" d="M202.616 492.394L226.52 492.929L226.21 454.331L202.616 453.624L202.616 492.394Z" fill="#5CAD2F"/>
<path fill-rule="evenodd" clip-rule="evenodd" d="M235.613 318.213V512.38H193.314V317.143H202.478V288.794H226.918V317.678L235.613 318.213Z" stroke="#5CAD2F" stroke-width="3.60613"/>
<path fill-rule="evenodd" clip-rule="evenodd" d="M202.407 435.51L226.31 436.045L226 397.447L202.407 396.74L202.407 435.51Z" fill="#5CAD2F"/>
<path fill-rule="evenodd" clip-rule="evenodd" d="M202.407 378.63L226.31 379.165L226 340.567L202.407 339.86L202.407 378.63Z" fill="#5CAD2F"/>
<path d="M340.938 279.338L320.867 247.079L315.501 270.734L335.572 302.993L340.938 279.338Z" fill="white" stroke="white" stroke-width="3.15628"/>
<path d="M462.091 275.215L439.748 238.579L433.774 265.443L456.117 302.078L462.091 275.215Z" fill="white" stroke="white" stroke-width="3.55346"/>
</svg>
