<?xml version="1.0" encoding="UTF-8"?><svg id="Layer_2" xmlns="http://www.w3.org/2000/svg" xmlns:xlink="http://www.w3.org/1999/xlink" viewBox="0 0 144.51 83.32"><defs><style>.cls-1{fill:url(#linear-gradient-2);}.cls-2{fill:none;stroke:#74ce3a;stroke-miterlimit:10;}.cls-3{fill:#040809;}.cls-4{fill:url(#linear-gradient-3);}.cls-5{fill:url(#linear-gradient);}.cls-6{fill:url(#linear-gradient-4);}</style><linearGradient id="linear-gradient" x1="73.53" y1="60.7" x2="83.27" y2="5.45" gradientUnits="userSpaceOnUse"><stop offset=".02" stop-color="#407820"/><stop offset=".36" stop-color="#5cac2f"/><stop offset=".79" stop-color="#bcf541"/></linearGradient><linearGradient id="linear-gradient-2" x1="85.68" y1="3.49" x2="87.24" y2="12.32" gradientUnits="userSpaceOnUse"><stop offset=".05" stop-color="#5cac2f"/><stop offset=".63" stop-color="#bcf541"/></linearGradient><linearGradient id="linear-gradient-3" x1="44.03" y1="32.08" x2="95.32" y2="32.08" xlink:href="#linear-gradient"/><linearGradient id="linear-gradient-4" x1="71.69" y1="16.11" x2="74.44" y2="16.11" xlink:href="#linear-gradient"/></defs><g id="Layer_1-2"><g><path class="cls-3" d="M.1,83.07c-.07-.07-.1-.15-.1-.25v-10.05c0-.11,.03-.2,.1-.27,.07-.07,.15-.1,.25-.1H4.57c1.1,0,1.92,.26,2.48,.78,.55,.52,.83,1.21,.83,2.06,0,.57-.13,1.05-.39,1.43s-.57,.66-.93,.83c.43,.21,.79,.55,1.09,1,.3,.45,.45,.97,.45,1.55s-.13,1.1-.39,1.57c-.26,.47-.65,.85-1.16,1.12-.51,.28-1.13,.42-1.85,.42H.35c-.1,0-.19-.03-.25-.1Zm4.24-6.12c.65,0,1.14-.15,1.48-.45,.34-.3,.52-.71,.52-1.25s-.17-.92-.51-1.2c-.34-.28-.84-.42-1.49-.42H1.51v3.31h2.83Zm.15,4.97c.65,0,1.15-.17,1.51-.52,.36-.35,.55-.79,.55-1.34s-.18-1.02-.55-1.36c-.36-.34-.87-.52-1.51-.52H1.51v3.74h2.99Z"/><path class="cls-3" d="M10.27,82.27c-.73-.7-1.12-1.76-1.16-3.18,0-.31-.02-.74-.02-1.31s0-.99,.02-1.29c.04-1.38,.44-2.44,1.2-3.16,.76-.72,1.79-1.08,3.08-1.08s2.3,.36,3.06,1.08c.76,.72,1.16,1.78,1.2,3.16,.02,.59,.03,1.03,.03,1.29s0,.69-.03,1.31c-.04,1.42-.43,2.47-1.16,3.18-.73,.7-1.77,1.05-3.1,1.05s-2.38-.35-3.12-1.05Zm5.05-.99c.48-.49,.74-1.25,.78-2.26,.02-.62,.03-1.03,.03-1.23,0-.23-.01-.64-.03-1.23-.04-1.02-.31-1.77-.79-2.26-.49-.49-1.13-.74-1.93-.74s-1.46,.25-1.95,.74-.75,1.25-.79,2.26c-.01,.3-.02,.71-.02,1.23s0,.92,.02,1.23c.04,1.02,.3,1.77,.79,2.26s1.14,.74,1.95,.74,1.46-.25,1.94-.74Z"/><path class="cls-3" d="M19.26,83.07c-.07-.07-.1-.15-.1-.25v-10.05c0-.11,.03-.2,.1-.27,.07-.07,.15-.1,.25-.1h3.75c1.18,0,2.1,.28,2.77,.83,.67,.55,1,1.35,1,2.4,0,.78-.19,1.42-.58,1.92-.38,.5-.93,.85-1.62,1.05l2.37,4.09c.03,.06,.05,.12,.05,.17,0,.08-.03,.15-.1,.21s-.14,.09-.22,.09h-.74c-.15,0-.27-.04-.36-.11-.09-.07-.17-.17-.24-.31l-2.23-3.91h-2.69v3.97c0,.1-.04,.19-.11,.25-.07,.07-.16,.1-.26,.1h-.79c-.1,0-.19-.03-.25-.1Zm3.95-5.53c1.53,0,2.29-.64,2.29-1.92s-.76-1.92-2.29-1.92h-2.54v3.85h2.54Z"/><path class="cls-3" d="M28.57,83.07c-.07-.07-.1-.15-.1-.25v-10.05c0-.11,.03-.2,.1-.27,.07-.07,.15-.1,.25-.1h.71c.18,0,.31,.07,.38,.21l5.11,7.85v-7.69c0-.11,.03-.2,.1-.27,.07-.07,.15-.1,.25-.1h.74c.11,0,.2,.03,.27,.1,.07,.07,.1,.16,.1,.27v10.03c0,.1-.03,.19-.1,.26-.07,.07-.15,.11-.25,.11h-.74c-.15,0-.28-.07-.37-.22l-5.09-7.77v7.63c0,.1-.04,.19-.11,.25-.07,.07-.16,.1-.26,.1h-.74c-.1,0-.19-.03-.25-.1Z"/><path class="cls-3" d="M38.49,83.07c-.07-.07-.1-.15-.1-.25v-10.05c0-.11,.03-.2,.1-.27,.07-.07,.15-.1,.25-.1h6.35c.1,0,.19,.03,.25,.1s.1,.16,.1,.27v.58c0,.1-.03,.19-.09,.25-.06,.07-.15,.1-.26,.1h-5.23v3.37h4.89c.1,0,.19,.03,.25,.1,.07,.07,.1,.16,.1,.27v.57c0,.1-.03,.19-.1,.25-.07,.07-.15,.1-.25,.1h-4.89v3.49h5.35c.11,0,.2,.03,.26,.09s.09,.15,.09,.26v.6c0,.1-.03,.19-.1,.25s-.15,.1-.25,.1h-6.48c-.1,0-.19-.03-.25-.1Z"/><path class="cls-3" d="M50.04,83.07c-.07-.07-.1-.15-.1-.25v-10.05c0-.11,.03-.2,.1-.27,.07-.07,.15-.1,.25-.1h3.49c1.55,0,2.67,.35,3.35,1.04,.69,.69,1.05,1.74,1.08,3.13,0,.3,.01,.7,.01,1.2s0,.91-.01,1.21c-.03,.97-.19,1.77-.49,2.38-.29,.61-.75,1.06-1.38,1.36-.63,.3-1.46,.45-2.49,.45h-3.57c-.1,0-.19-.03-.25-.1Zm3.75-1.21c.71,0,1.27-.1,1.68-.29,.42-.19,.72-.5,.91-.93,.19-.43,.29-1,.32-1.72,.02-.62,.03-1,.03-1.15,0-.16,0-.54-.03-1.14-.02-1.02-.26-1.76-.72-2.22s-1.22-.7-2.26-.7h-2.26v8.16h2.34Z"/><path class="cls-3" d="M59.88,83.07c-.07-.07-.1-.15-.1-.25v-10.05c0-.11,.03-.2,.1-.27,.07-.07,.15-.1,.25-.1h6.35c.1,0,.19,.03,.25,.1s.1,.16,.1,.27v.58c0,.1-.03,.19-.09,.25-.06,.07-.15,.1-.26,.1h-5.23v3.37h4.89c.1,0,.19,.03,.25,.1,.07,.07,.1,.16,.1,.27v.57c0,.1-.03,.19-.1,.25-.07,.07-.15,.1-.25,.1h-4.89v3.49h5.35c.11,0,.2,.03,.26,.09s.09,.15,.09,.26v.6c0,.1-.03,.19-.1,.25s-.15,.1-.25,.1h-6.48c-.1,0-.19-.03-.25-.1Z"/><path class="cls-3" d="M71.43,83.07c-.07-.07-.1-.15-.1-.25v-10.05c0-.11,.03-.2,.1-.27,.07-.07,.15-.1,.25-.1h3.75c1.18,0,2.1,.28,2.77,.83,.67,.55,1,1.35,1,2.4,0,.78-.19,1.42-.58,1.92-.38,.5-.93,.85-1.62,1.05l2.37,4.09c.03,.06,.05,.12,.05,.17,0,.08-.03,.15-.1,.21s-.14,.09-.22,.09h-.74c-.15,0-.27-.04-.36-.11-.09-.07-.17-.17-.24-.31l-2.23-3.91h-2.69v3.97c0,.1-.04,.19-.11,.25-.07,.07-.16,.1-.26,.1h-.79c-.1,0-.19-.03-.25-.1Zm3.95-5.53c1.53,0,2.29-.64,2.29-1.92s-.76-1.92-2.29-1.92h-2.54v3.85h2.54Z"/><path class="cls-3" d="M80.74,83.07c-.07-.07-.1-.15-.1-.25v-10.05c0-.11,.03-.2,.1-.27,.07-.07,.15-.1,.25-.1h6.35c.1,0,.19,.03,.25,.1s.1,.16,.1,.27v.58c0,.1-.03,.19-.09,.25-.06,.07-.15,.1-.26,.1h-5.23v3.37h4.89c.1,0,.19,.03,.25,.1,.07,.07,.1,.16,.1,.27v.57c0,.1-.03,.19-.1,.25-.07,.07-.15,.1-.25,.1h-4.89v3.49h5.35c.11,0,.2,.03,.26,.09s.09,.15,.09,.26v.6c0,.1-.03,.19-.1,.25s-.15,.1-.25,.1h-6.48c-.1,0-.19-.03-.25-.1Z"/><path class="cls-3" d="M89.83,82.21c-.71-.74-1.09-1.76-1.15-3.06,0-.28-.02-.73-.02-1.35s0-1.1,.02-1.38c.05-1.29,.44-2.31,1.15-3.05,.72-.74,1.76-1.12,3.12-1.12,.91,0,1.69,.16,2.32,.49,.64,.32,1.12,.75,1.45,1.27,.33,.52,.51,1.08,.54,1.68v.03c0,.08-.03,.15-.1,.21-.07,.06-.14,.08-.22,.08h-.85c-.21,0-.33-.12-.38-.35-.17-.77-.49-1.31-.94-1.62-.45-.31-1.06-.47-1.82-.47-1.76,0-2.68,.98-2.74,2.94-.01,.28-.02,.7-.02,1.28s0,1.01,.02,1.31c.06,1.96,.97,2.94,2.74,2.94,.76,0,1.37-.16,1.82-.47,.46-.31,.77-.85,.93-1.62,.03-.13,.08-.22,.14-.28s.14-.08,.25-.08h.85c.09,0,.17,.03,.24,.08s.09,.13,.08,.22c-.03,.61-.21,1.17-.54,1.69-.33,.52-.81,.95-1.45,1.27-.64,.32-1.41,.49-2.32,.49-1.37,0-2.42-.37-3.13-1.11Z"/><path class="cls-3" d="M98.67,83.07c-.07-.07-.1-.15-.1-.25v-10.05c0-.11,.03-.2,.1-.27,.07-.07,.15-.1,.25-.1h.79c.11,0,.2,.03,.27,.1s.1,.16,.1,.27v4.25h5.29v-4.25c0-.11,.03-.2,.1-.27,.07-.07,.15-.1,.25-.1h.79c.11,0,.2,.03,.27,.1,.07,.07,.1,.16,.1,.27v10.05c0,.1-.04,.19-.11,.25-.07,.07-.16,.1-.26,.1h-.79c-.1,0-.19-.03-.25-.1-.07-.07-.1-.15-.1-.25v-4.42h-5.29v4.42c0,.1-.04,.19-.11,.25-.07,.07-.16,.1-.26,.1h-.79c-.1,0-.19-.03-.25-.1Z"/><path class="cls-3" d="M107.85,83.07c-.06-.06-.09-.13-.09-.21s0-.14,.02-.17l3.82-9.96c.08-.22,.25-.34,.49-.34h1.05c.25,0,.41,.11,.49,.34l3.8,9.96,.03,.17c0,.08-.03,.15-.09,.21s-.13,.09-.22,.09h-.78c-.11,0-.2-.03-.26-.08-.06-.06-.1-.12-.12-.18l-.85-2.18h-5.05l-.85,2.18c-.02,.06-.06,.12-.13,.18-.07,.06-.15,.08-.25,.08h-.79c-.08,0-.15-.03-.21-.09Zm6.83-3.68l-2.08-5.46-2.08,5.46h4.15Z"/><path class="cls-3" d="M118.42,83.07c-.07-.07-.1-.15-.1-.25v-10.05c0-.11,.03-.2,.1-.27,.07-.07,.15-.1,.25-.1h3.75c1.18,0,2.1,.28,2.77,.83,.67,.55,1,1.35,1,2.4,0,.78-.19,1.42-.58,1.92-.38,.5-.93,.85-1.62,1.05l2.37,4.09c.03,.06,.05,.12,.05,.17,0,.08-.03,.15-.1,.21s-.14,.09-.22,.09h-.74c-.15,0-.27-.04-.36-.11-.09-.07-.17-.17-.24-.31l-2.23-3.91h-2.69v3.97c0,.1-.04,.19-.11,.25-.07,.07-.16,.1-.26,.1h-.79c-.1,0-.19-.03-.25-.1Zm3.95-5.53c1.53,0,2.29-.64,2.29-1.92s-.76-1.92-2.29-1.92h-2.54v3.85h2.54Z"/><path class="cls-3" d="M128.41,82.22c-.74-.73-1.14-1.74-1.19-3.01,0-.31-.02-.79-.02-1.45s0-1.15,.02-1.45c.05-1.26,.45-2.26,1.2-2.99s1.79-1.09,3.12-1.09c.9,0,1.67,.16,2.3,.49,.63,.32,1.11,.71,1.42,1.18,.32,.46,.49,.89,.51,1.29v.03c0,.08-.03,.15-.09,.2-.06,.05-.14,.08-.23,.08h-.91c-.1,0-.18-.02-.22-.05-.05-.04-.09-.11-.13-.22-.15-.46-.45-.86-.88-1.18-.44-.33-1.02-.49-1.76-.49-.85,0-1.52,.23-2,.69-.48,.46-.74,1.18-.78,2.15-.01,.3-.02,.75-.02,1.37s0,1.06,.02,1.37c.04,.98,.3,1.71,.78,2.18,.48,.47,1.15,.7,2,.7s1.55-.24,2.06-.71c.51-.47,.77-1.18,.77-2.12v-.65h-2.31c-.1,0-.19-.03-.25-.1s-.1-.16-.1-.27v-.49c0-.1,.03-.19,.1-.26,.07-.07,.15-.11,.25-.11h3.48c.1,0,.19,.03,.25,.1,.07,.07,.1,.16,.1,.27v1.48c0,.84-.17,1.57-.52,2.2s-.85,1.11-1.51,1.45c-.66,.34-1.43,.52-2.32,.52-1.34,0-2.39-.37-3.13-1.1Z"/><path class="cls-3" d="M137.43,83.07c-.07-.07-.1-.15-.1-.25v-10.05c0-.11,.03-.2,.1-.27,.07-.07,.15-.1,.25-.1h6.35c.1,0,.19,.03,.25,.1s.1,.16,.1,.27v.58c0,.1-.03,.19-.09,.25-.06,.07-.15,.1-.26,.1h-5.23v3.37h4.89c.1,0,.19,.03,.25,.1,.07,.07,.1,.16,.1,.27v.57c0,.1-.03,.19-.1,.25-.07,.07-.15,.1-.25,.1h-4.89v3.49h5.35c.11,0,.2,.03,.26,.09s.09,.15,.09,.26v.6c0,.1-.03,.19-.1,.25s-.15,.1-.25,.1h-6.48c-.1,0-.19-.03-.25-.1Z"/></g><g><path class="cls-5" d="M100.48,13.26c0,.09,0,.18,0,.26-.56,6.46-5.79,13.33-13.33,13.94v.06c6.54,0,11.15,1.8,11.85,8.88v4.39c-.87,6.35-5.44,12.19-11.85,14.61-2.35,.91-5.05,1.43-8.12,1.43l-26.78,.11,8.09-9.54s17.36-.07,17.37-.07c.08,0,.38,.02,.82,0h.03c2.34-.1,8.59-.98,8.59-7.66,0-7.3-4.46-7.71-9.33-7.71-1.16,0-3.22,.02-4.4,.02l7.89-9.3h0c2.44-.18,4.43-1.39,5.76-2.95l.08-.03v-.06c1.8-2.1,2.45-5.21,1.12-7.62-1-1.63-2.52-2.16-4.67-2.2-2.86,0-5.51,1.22-7.6,3.07,3.35-3.33,6.2-4.52,23.86-4.52,.46,1.5,.67,3.15,.63,4.88Z"/><path class="cls-1" d="M99.85,8.38c-17.65,0-20.51,1.19-23.86,4.52-.5,.44-.96,.91-1.39,1.41,0,0-.01,.01-.02,.02l-.14,.17-.1,.1c7.97-9.31,12-12.34,20.98-12.34h0c2.27,1.47,3.75,3.6,4.52,6.12Z"/><path class="cls-4" d="M67.77,22.35c1.92-.5,12.85-3.32,15.01-3.87-12.15,14.32-26.6,31.36-38.75,45.68,6.34-10.09,15.3-24.38,21.68-34.53-3.79,1.75-10.35,4.8-14.18,6.57,3.68-5.86,9.17-14.6,12.87-20.5,2.36-4.01,12.82-17.46,24.57-15.52,2.57,.25,4.68,.98,6.36,2.07-8.98,0-13.01,3.03-20.98,12.34l-.02,.02s-.02,.02-.02,.03c-.83,.96-1.69,1.99-2.61,3.09-.02,.02-.03,.03-.05,.05l-3.88,4.57Z"/><path class="cls-6" d="M74.44,14.49l-2.75,3.24c.92-1.1,1.78-2.13,2.61-3.09,0,0,.02-.02,.02-.03l.12-.12Z"/><line class="cls-2" x1="99.85" y1="8.38" x2="99.85" y2="8.38"/></g></g></svg>